<svg width="0" height="0" display="none" xmlns="http://www.w3.org/2000/svg">
  <symbol viewBox="0 0 24 24" id="1">
    <path d="M15.997 3.985h2.191V.169C17.81.117 16.51 0 14.996 0c-3.159 0-5.323 1.987-5.323 5.639V9H6.187v4.266h3.486V24h4.274V13.267h3.345l.531-4.266h-3.877V6.062c.001-1.233.333-2.077 2.051-2.077z" data-original="#000000" data-old_color="#000000"></path>
  </symbol>
  <symbol viewBox="0 0 24 24" id="2">
    <path d="M19.915 13.028c-.388-.49-.277-.708 0-1.146.005-.005 3.208-4.431 3.538-5.932l.002-.001c.164-.547 0-.949-.793-.949h-2.624c-.668 0-.976.345-1.141.731 0 0-1.336 3.198-3.226 5.271-.61.599-.892.791-1.225.791-.164 0-.419-.192-.419-.739V5.949c0-.656-.187-.949-.74-.949H9.161c-.419 0-.668.306-.668.591 0 .622.945.765 1.043 2.515v3.797c0 .832-.151.985-.486.985-.892 0-3.057-3.211-4.34-6.886-.259-.713-.512-1.001-1.185-1.001H.9c-.749 0-.9.345-.9.731 0 .682.892 4.073 4.148 8.553C6.318 17.343 9.374 19 12.154 19c1.671 0 1.875-.368 1.875-1.001 0-2.922-.151-3.198.686-3.198.388 0 1.056.192 2.616 1.667C19.114 18.217 19.407 19 20.405 19h2.624c.748 0 1.127-.368.909-1.094-.499-1.527-3.871-4.668-4.023-4.878z" data-original="#000000" data-old_color="#000000"></path>
  </symbol>
  <symbol viewBox="0 0 511 511.9" id="3">
    <path d="M510.95 150.5c-1.2-27.2-5.598-45.898-11.9-62.102-6.5-17.199-16.5-32.597-29.6-45.398-12.802-13-28.302-23.102-45.302-29.5-16.296-6.3-34.898-10.7-62.097-11.898C334.648.3 325.949 0 256.449 0s-78.199.3-105.5 1.5c-27.199 1.2-45.898 5.602-62.097 11.898-17.204 6.5-32.602 16.5-45.403 29.602-13 12.8-23.097 28.3-29.5 45.3-6.3 16.302-10.699 34.9-11.898 62.098C.75 177.801.449 186.5.449 256s.301 78.2 1.5 105.5c1.2 27.2 5.602 45.898 11.903 62.102 6.5 17.199 16.597 32.597 29.597 45.398 12.801 13 28.301 23.102 45.301 29.5 16.3 6.3 34.898 10.7 62.102 11.898 27.296 1.204 36 1.5 105.5 1.5s78.199-.296 105.5-1.5c27.199-1.199 45.898-5.597 62.097-11.898a130.934 130.934 0 0074.903-74.898c6.296-16.301 10.699-34.903 11.898-62.102 1.2-27.3 1.5-36 1.5-105.5s-.102-78.2-1.3-105.5zm-46.098 209c-1.102 25-5.301 38.5-8.801 47.5-8.602 22.3-26.301 40-48.602 48.602-9 3.5-22.597 7.699-47.5 8.796-27 1.204-35.097 1.5-103.398 1.5s-76.5-.296-103.403-1.5c-25-1.097-38.5-5.296-47.5-8.796C94.551 451.5 84.45 445 76.25 436.5c-8.5-8.3-15-18.3-19.102-29.398-3.5-9-7.699-22.602-8.796-47.5-1.204-27-1.5-35.102-1.5-103.403s.296-76.5 1.5-103.398c1.097-25 5.296-38.5 8.796-47.5C61.25 94.199 67.75 84.1 76.352 75.898c8.296-8.5 18.296-15 29.398-19.097 9-3.5 22.602-7.7 47.5-8.801 27-1.2 35.102-1.5 103.398-1.5 68.403 0 76.5.3 103.403 1.5 25 1.102 38.5 5.3 47.5 8.8 11.097 4.098 21.199 10.598 29.398 19.098 8.5 8.301 15 18.301 19.102 29.403 3.5 9 7.699 22.597 8.8 47.5 1.2 27 1.5 35.097 1.5 103.398s-.3 76.301-1.5 103.301zm0 0" data-original="#000000" data-old_color="#000000"></path>
    <path d="M256.45 124.5c-72.598 0-131.5 58.898-131.5 131.5s58.902 131.5 131.5 131.5c72.6 0 131.5-58.898 131.5-131.5s-58.9-131.5-131.5-131.5zm0 216.8c-47.098 0-85.302-38.198-85.302-85.3s38.204-85.3 85.301-85.3c47.102 0 85.301 38.198 85.301 85.3s-38.2 85.3-85.3 85.3zm167.402-222c0 16.954-13.747 30.7-30.704 30.7-16.953 0-30.699-13.746-30.699-30.7 0-16.956 13.746-30.698 30.7-30.698 16.956 0 30.703 13.742 30.703 30.699zm0 0" data-original="#000000" data-old_color="#000000"></path>
  </symbol>
  <symbol viewBox="0 0 512 512" id="4">
    <path d="M255.968 5.329C114.624 5.329 0 120.401 0 262.353c0 113.536 73.344 209.856 175.104 243.872 12.8 2.368 17.472-5.568 17.472-12.384 0-6.112-.224-22.272-.352-43.712-71.2 15.52-86.24-34.464-86.24-34.464-11.616-29.696-28.416-37.6-28.416-37.6-23.264-15.936 1.728-15.616 1.728-15.616 25.696 1.824 39.2 26.496 39.2 26.496 22.848 39.264 59.936 27.936 74.528 21.344 2.304-16.608 8.928-27.936 16.256-34.368-56.832-6.496-116.608-28.544-116.608-127.008 0-28.064 9.984-51.008 26.368-68.992-2.656-6.496-11.424-32.64 2.496-68 0 0 21.504-6.912 70.4 26.336 20.416-5.696 42.304-8.544 64.096-8.64 21.728.128 43.648 2.944 64.096 8.672 48.864-33.248 70.336-26.336 70.336-26.336 13.952 35.392 5.184 61.504 2.56 68 16.416 17.984 26.304 40.928 26.304 68.992 0 98.72-59.84 120.448-116.864 126.816 9.184 7.936 17.376 23.616 17.376 47.584 0 34.368-.32 62.08-.32 70.496 0 6.88 4.608 14.88 17.6 12.352C438.72 472.145 512 375.857 512 262.353 512 120.401 397.376 5.329 255.968 5.329z" data-original="#000000" data-old_color="#000000"></path>
  </symbol>
  <symbol xmlns="http://www.w3.org/2000/svg" viewBox="0 -46 417.813 417" id="b1">
    <path d="M159.988 318.582c-3.988 4.012-9.43 6.25-15.082 6.25s-11.094-2.238-15.082-6.25L9.375 198.113c-12.5-12.5-12.5-32.77 0-45.246l15.082-15.086c12.504-12.5 32.75-12.5 45.25 0l75.2 75.203L348.104 9.781c12.504-12.5 32.77-12.5 45.25 0l15.082 15.086c12.5 12.5 12.5 32.766 0 45.246zm0 0" data-original="#000000" data-old_color="#000000"></path>
  </symbol>
  <symbol xmlns="http://www.w3.org/2000/svg" viewBox="0 0 512 512" id="b2">
    <path d="M435.143 129.356a20.002 20.002 0 00-25.407-2.384c-29.926 20.398-180.03 122.969-196.162 139.1-23.394 23.395-23.394 61.459 0 84.854 11.697 11.696 27.063 17.545 42.427 17.545s30.729-5.849 42.427-17.545c16.131-16.132 118.701-166.236 139.1-196.162a20.006 20.006 0 00-2.385-25.408zM270.142 322.641c-7.797 7.799-20.486 7.799-28.283 0-7.798-7.797-7.799-20.482-.004-28.28 6.268-6.194 48.885-36.588 101.319-73.035-36.446 52.434-66.84 95.049-73.032 101.315z" data-original="#000000" data-old_color="#000000"></path>
    <path d="M92.231 401.523l-24.69 12.044C49.475 381.325 40 345.338 40 308.499c0-26.991 4.977-52.842 14.06-76.683l28.291 13.57a19.924 19.924 0 008.636 1.972c7.453 0 14.608-4.185 18.047-11.355 4.776-9.959.576-21.906-9.384-26.683l-27.932-13.398c34.717-56.62 94.784-96.095 164.283-102.505v30.081c0 11.046 8.954 20 20 20s20-8.954 20-20V93.402c23.828 2.169 46.884 8.237 68.771 18.117 10.065 4.545 21.912.066 26.457-9.999 4.545-10.068.068-21.913-10-26.458C328.063 60.091 292.659 52.499 256 52.499c-68.38 0-132.667 26.628-181.02 74.98C26.629 175.832 0 240.119 0 308.499c0 50.53 14.998 99.674 43.373 142.115a20 20 0 0025.396 6.86l41-20c9.928-4.843 14.05-16.816 9.207-26.744-4.843-9.927-16.817-14.048-26.745-9.207zm397.205-198.252c-4.544-10.067-16.387-14.547-26.458-10-10.067 4.545-14.544 16.39-9.999 26.457C465.601 247.686 472 277.553 472 308.499c0 36.894-9.506 72.939-27.625 105.218l-25.777-12.275c-9.971-4.748-21.906-.515-26.656 9.459-4.749 9.972-.514 21.907 9.459 26.656l42 20a19.997 19.997 0 0025.225-6.942C497.002 408.173 512 359.029 512 308.499c0-36.659-7.592-72.063-22.564-105.228z" data-original="#000000" data-old_color="#000000"></path>
  </symbol>
  <symbol xmlns="http://www.w3.org/2000/svg" viewBox="0 0 512 512" id="b3">
    <path d="M256 512c-68.38 0-132.668-26.628-181.02-74.98S0 324.38 0 256 26.629 123.333 74.98 74.98 187.62 0 256 0s132.668 26.628 181.02 74.98S512 187.62 512 256s-26.629 132.667-74.98 181.02S324.38 512 256 512zm0-480C132.486 32 32 132.486 32 256s100.486 224 224 224 224-100.486 224-224S379.514 32 256 32z" data-original="#000000" data-old_color="#000000"></path>
    <path d="M320 360h-32c-36.743 0-69.097-19.153-87.602-48H272c8.837 0 16-7.164 16-16s-7.163-16-16-16h-85.2c-1.828-7.707-2.8-15.742-2.8-24s.973-16.293 2.8-24H272c8.837 0 16-7.164 16-16s-7.163-16-16-16h-71.602c18.505-28.847 50.859-48 87.602-48h24c8.837 0 16-7.164 16-16s-7.163-16-16-16h-24c-55.039 0-102.545 32.865-123.929 80H144c-8.837 0-16 7.164-16 16s7.163 16 16 16h10.121c-1.393 7.793-2.121 15.813-2.121 24s.728 16.207 2.121 24H144c-8.837 0-16 7.164-16 16s7.163 16 16 16h20.071c21.383 47.135 68.89 80 123.929 80h32c8.837 0 16-7.164 16-16s-7.163-16-16-16z" data-original="#000000" data-old_color="#000000"></path>
  </symbol>
  <symbol xmlns="http://www.w3.org/2000/svg" viewBox="0 0 512 512" id="b4">
    <path d="M0 152h31v30H0v150h31v30H0v150h512V362h-31v-30h31V182h-31v-30h31V0H0zm482 330H30v-90h452zm-31-120H61v-30h390zm31-60H30v-90h452zm-31-120H61v-30h390zM30 30h452v92H30z" data-original="#000000" data-old_color="#000000"></path>
    <path d="M61 62h30v30H61zm60 0h30v30h-30zm60 0h30v30h-30zm120 0h150v30H301zM61 242h30v30H61zm60 0h30v30h-30zm60 0h30v30h-30zm120 0h150v30H301zM61 422h30v30H61zm60 0h30v30h-30zm60 0h30v30h-30zm120 0h150v30H301z" data-original="#000000" data-old_color="#000000"></path>
  </symbol>
  <symbol xmlns="http://www.w3.org/2000/svg" viewBox="0 0 512 512" id="b5">
    <path d="M0 15.845v420.259h164.332v30.049h-30.036v30.001h243.407v-30.001h-30.036v-30.049H512V15.845H0zm317.665 450.308H194.334v-30.049h123.332v30.049zm164.334-60.05H30.001v-60.075h451.997v60.075zm0-90.076H30.001V45.847h451.997v270.18z" data-original="#000000" data-old_color="#000000"></path>
    <path data-original="#000000" data-old_color="#000000" d="M203.943 126.712l-21.214-21.214-75.439 75.439 75.439 75.438 21.214-21.214-54.225-54.224zm125.328-21.214l-21.214 21.214 54.225 54.225-54.225 54.224 21.214 21.214 75.438-75.438zM223.874 265.56L258.7 90.475l29.426 5.853L253.3 271.413z"></path>
  </symbol>
  <symbol xmlns="http://www.w3.org/2000/svg" viewBox="0 -3 512 511" id="b6">
    <path d="M509.914 214.86L424.22 103.54a10.04 10.04 0 00-13.344-2.345l-55.328 35.188h-72.16c-.934 0-1.864.199-2.762.46l-55.95 16.106-58.054-15.879-56.41-35.875a10.035 10.035 0 00-13.2 2.164L2.228 220.766c-3.407 4.218-2.844 10.379 1.265 13.914l49.68 42.754 44.57 60.062c-13.035 13.887-12.781 35.79.781 49.356 6.012 6.007 13.657 9.402 21.52 10.191a35.708 35.708 0 00-.414 5.426c0 9.476 3.691 18.386 10.39 25.086 6.704 6.703 15.614 10.394 25.09 10.394.13 0 .254-.008.38-.012-.005.243-.016.481-.016.723 0 9.477 3.691 18.387 10.39 25.09 6.703 6.7 15.614 10.39 25.09 10.39a36.2 36.2 0 005.54-.433 35.298 35.298 0 0010.202 21.602c6.914 6.918 16 10.375 25.086 10.375s18.172-3.457 25.09-10.375l5.426-5.426 2.277 1.836c6.86 6.644 15.766 9.965 24.672 9.965 9.086 0 18.172-3.457 25.086-10.375 7.059-7.059 10.516-16.375 10.371-25.645 9.266.14 18.586-3.312 25.645-10.367 7.05-7.055 10.507-16.363 10.37-25.629 9.653.152 18.81-3.555 25.641-10.387 7.059-7.058 10.516-16.375 10.371-25.644 9.274.14 18.586-3.313 25.645-10.371 12.047-12.047 13.598-30.668 4.664-44.414l32.543-68.157 48.926-42.101a10.038 10.038 0 001.406-13.735zM107 122.95l40.563 25.792-88.239 107.5-35.36-30.433zm5.723 227.921l12.242-12.242a15.368 15.368 0 019.523-4.445c.086-.008.176-.008.262-.012a14.8 14.8 0 011.316-.055c4.196.059 8.094 1.774 10.985 4.824 5.672 5.996 5.367 15.793-.68 21.84L134.5 372.652c-6.004 6.004-15.773 6.004-21.777 0-6.004-6.007-6.004-15.777 0-21.78zm31.496 62.484c-2.91-2.906-4.512-6.773-4.512-10.886s1.602-7.98 4.512-10.89l23.738-23.74c4.547-4.546 11.695-5.792 17.508-3.023 5.992 2.856 9.363 9.36 8.484 15.903a16.252 16.252 0 01-4.586 9.277L166 413.356c-2.91 2.91-6.777 4.511-10.89 4.511s-7.981-1.601-10.891-4.512zm35.844 36.192a15.284 15.284 0 01-4.512-10.887 15.3 15.3 0 014.512-10.89l23.734-23.739c4.863-4.86 12.664-5.906 18.617-2.441 5.438 3.164 8.285 9.375 7.352 15.562a16.27 16.27 0 01-4.563 9.036l-23.36 23.359c-2.91 2.91-6.777 4.512-10.89 4.512s-7.98-1.602-10.89-4.512zm40.828 31.562c-6.004-6.004-6.004-15.773 0-21.777l12.242-12.242a16.162 16.162 0 011.183-1.07 15.347 15.347 0 016.829-3.172l.175-.024c.43-.078.868-.14 1.305-.18.176-.015.352-.015.531-.027.36-.02.715-.043 1.078-.039a15.301 15.301 0 0111.977 5.992c4.617 6.035 3.996 15-1.734 20.735l-11.809 11.808c-6.004 6.004-15.773 6-21.777-.004zm187.285-112.043c-6.004 6.008-15.774 6.004-21.778 0a9.137 9.137 0 00-.683-.613L321.16 303.22c-3.902-3.942-10.258-3.973-14.2-.07-3.94 3.898-3.972 10.253-.073 14.195l65.254 65.933.023.024c6.004 6.004 6.004 15.777 0 21.781a15.3 15.3 0 01-10.89 4.512 15.286 15.286 0 01-10.891-4.512l-43.653-44.105c-3.898-3.942-10.253-3.973-14.195-.075-3.941 3.903-3.973 10.258-.074 14.2l42.984 43.43c.22.273.453.534.703.784 6.004 6.004 6.004 15.778 0 21.782-6.007 6.004-15.78 6-21.785-.004L290.54 417.02c-3.902-3.942-10.258-3.977-14.2-.075-3.94 3.899-3.972 10.254-.073 14.196l23.16 23.398c.219.274.453.54.707.79 6.004 6.003 6.004 15.776 0 21.78-6.004 6.008-15.774 6.004-21.778 0-.69-.691-1.503-1.222-2.277-1.816-.656-.5-.828-.848-.5-1.645.332-.808.828-1.539 1.16-2.351.367-.906.664-1.84.953-2.777a36.198 36.198 0 001.301-15.446c-1.328-9.879-6.762-18.793-14.996-24.433a35.242 35.242 0 00-14.934-5.79c2.586-11.406-.519-23.773-8.597-32.308-6.649-7.023-15.63-10.965-25.29-11.098a47.817 47.817 0 00-1.058 0c.215-9.218-3.137-18.379-9.492-25.093-6.652-7.024-15.633-10.965-25.29-11.098-2.87-.04-5.769.266-8.565.91-1.196-8.316-5.387-16.012-11.735-21.516-6.308-5.46-14.242-8.492-22.691-8.609-8.895-.129-17.633 3.152-24.239 9.117l-38.808-52.293 92.844-113.11 29.59 8.095-38.645 68.191c-4.672 8.246-5.852 17.816-3.324 26.95 2.527 9.136 8.457 16.738 16.703 21.41.515.292 1.035.57 1.562.835.04.02.078.04.121.059a35.71 35.71 0 004.258 1.785c6.73 2.332 14 2.586 21.012.649 9.133-2.528 16.734-8.461 21.406-16.704l25.113-44.316 44.84 3.18L408.18 347.285c6 6.008 6 15.777-.004 21.781zm4.16-46.02L300.324 211.04a10.046 10.046 0 00-6.387-2.914l-54.902-3.895c-3.797-.261-7.57 1.758-9.445 5.067l-28.235 49.828a15.303 15.303 0 01-9.292 7.25 15.305 15.305 0 01-11.7-1.445 15.303 15.303 0 01-7.25-9.293 15.283 15.283 0 011.446-11.7l37.691-66.519 15.273-4.395c.102-.03.2-.07.301-.101l57.004-16.461h68.875l85.985 109.305zm40.504-73.038L373.324 148.87l40.582-25.809 74.301 96.512zm0 0" data-original="#000000" data-old_color="#000000" ></path>
    <path d="M310.184 117.531c2.57 0 5.14-.98 7.101-2.941l68.578-68.578c3.922-3.922 3.922-10.278 0-14.2s-10.277-3.921-14.199 0l-68.578 68.579a10.039 10.039 0 000 14.199 10.01 10.01 0 007.098 2.941zm-115.469-2.941a10.012 10.012 0 007.101 2.941c2.567 0 5.137-.98 7.098-2.941a10.039 10.039 0 000-14.2l-68.578-68.578c-3.922-3.921-10.277-3.921-14.2 0s-3.921 10.278 0 14.2zM256 117.531c5.543 0 10.04-4.496 10.04-10.039V50.738c0-5.543-4.497-10.039-10.04-10.039s-10.04 4.496-10.04 10.04v56.753c0 5.543 4.497 10.04 10.04 10.04zm-9.266-103.179c1.594 3.863 5.567 6.398 9.758 6.18 4.14-.216 7.778-3.012 9.059-6.954 1.285-3.973-.114-8.5-3.442-11.031-3.394-2.586-8.129-2.73-11.68-.383-3.96 2.617-5.495 7.828-3.695 12.188zm0 0" data-original="#000000" data-old_color="#000000"></path>
  </symbol>
  <symbol xmlns="http://www.w3.org/2000/svg" viewBox="0 0 10 8" id="arrow">
    <path d="M9.854 4.354a.5.5 0 000-.708L6.672.464a.5.5 0 10-.708.708L8.793 4 5.964 6.828a.5.5 0 10.708.708l3.182-3.182zM0 4.5h9.5v-1H0v1z"></path>
  </symbol>
  <symbol xmlns="http://www.w3.org/2000/svg" viewBox="0 0 22 15" id="arrow2">
    <path d="M0 1.914L1.616 0l11.048 13.086L11.048 15z"></path>
    <path d="M20.384.087L22 2l-9.507 11.26-1.616-1.914z"></path>
  </symbol>
  <symbol xmlns="http://www.w3.org/2000/svg" viewBox="0 0 512.001 512.001" id="cancel">
    <path d="M284.286 256.002L506.143 34.144c7.811-7.811 7.811-20.475 0-28.285-7.811-7.81-20.475-7.811-28.285 0L256 227.717 34.143 5.859c-7.811-7.811-20.475-7.811-28.285 0-7.81 7.811-7.811 20.475 0 28.285l221.857 221.857L5.858 477.859c-7.811 7.811-7.811 20.475 0 28.285a19.938 19.938 0 0014.143 5.857 19.94 19.94 0 0014.143-5.857L256 284.287l221.857 221.857c3.905 3.905 9.024 5.857 14.143 5.857s10.237-1.952 14.143-5.857c7.811-7.811 7.811-20.475 0-28.285L284.286 256.002z"></path>
  </symbol>
  <symbol xmlns="http://www.w3.org/2000/svg" viewBox="0 0 23 23" id="phone">
    <g clip-path="url(#clip0)">
      <path d="M22.374 16.88l-3.21-3.21c-1.146-1.146-3.095-.688-3.553.802-.344 1.032-1.49 1.605-2.522 1.376-2.293-.573-5.388-3.554-5.961-5.96-.344-1.033.344-2.179 1.375-2.523 1.49-.458 1.95-2.407.803-3.553L6.096.602c-.917-.803-2.293-.803-3.095 0L.823 2.78c-2.178 2.292.23 8.368 5.617 13.756 5.388 5.387 11.463 7.91 13.756 5.617l2.178-2.178c.803-.917.803-2.293 0-3.095z"></path>
    </g>
    <defs>
      <clipPath id="clip0">
        <path d="M0 0h23v23H0z"></path>
      </clipPath>
    </defs>
  </symbol>
   <symbol xmlns="http://www.w3.org/2000/svg" viewBox="0 0 23 19" id="mail">
    <path d="M20.979.74H2.02A2.025 2.025 0 000 2.762v13.476c0 1.11.904 2.022 2.021 2.022h18.957A2.025 2.025 0 0023 16.238V2.762C23 1.652 22.096.74 20.979.74zm-.28 1.348l-9.156 9.157-9.236-9.157H20.7zM1.348 15.959V3.034l6.49 6.435-6.49 6.49zm.953.953l6.494-6.494 2.275 2.256c.264.261.69.26.951-.002l2.22-2.22 6.458 6.46H2.301zm19.351-.953L15.193 9.5l6.46-6.46v12.92z"></path>
  </symbol>
  <symbol xmlns="http://www.w3.org/2000/svg" viewBox="0 0 20 18" id="telegram">
    <path d="M7.847 11.65l-.33 4.654c.473 0 .678-.203.924-.448l2.219-2.12 4.598 3.367c.844.47 1.438.223 1.665-.776l3.019-14.143v-.001C20.21.936 19.492.449 18.67.755L.928 7.547c-1.21.47-1.192 1.145-.206 1.451l4.536 1.41 10.536-6.592c.496-.328.947-.146.576.182L7.847 11.65z"></path>
  </symbol>
  <symbol xmlns="http://www.w3.org/2000/svg" viewBox="0 0 20 18" id="twitter">
    <path d="M20 2.799a8.549 8.549 0 01-2.363.647 4.077 4.077 0 001.804-2.266 8.192 8.192 0 01-2.6.992A4.099 4.099 0 009.75 4.976c0 .325.027.638.095.935-3.409-.166-6.425-1.8-8.451-4.288A4.128 4.128 0 00.83 3.694a4.11 4.11 0 001.821 3.408A4.05 4.05 0 01.8 6.598v.045a4.119 4.119 0 003.285 4.028 4.09 4.09 0 01-1.075.135c-.262 0-.527-.015-.776-.07.531 1.624 2.038 2.818 3.831 2.856a8.238 8.238 0 01-5.084 1.75A7.67 7.67 0 010 15.284a11.543 11.543 0 006.29 1.84c7.545 0 11.67-6.25 11.67-11.668 0-.18-.006-.356-.015-.53A8.179 8.179 0 0020 2.8z"></path>
  </symbol>
  <symbol xmlns="http://www.w3.org/2000/svg" viewBox="0 0 512 512" id="copyright">
    <path xmlns="http://www.w3.org/2000/svg" d="M256 512c-68.38 0-132.667-26.629-181.02-74.98C26.629 388.667 0 324.38 0 256S26.629 123.333 74.98 74.98C123.333 26.629 187.62 0 256 0s132.667 26.629 181.02 74.98C485.371 123.333 512 187.62 512 256s-26.629 132.667-74.98 181.02C388.667 485.371 324.38 512 256 512zm0-472C136.897 40 40 136.897 40 256s96.897 216 216 216 216-96.897 216-216S375.103 40 256 40zm90.313 307.924c7.81-7.811 7.811-20.474 0-28.284-7.812-7.811-20.475-7.81-28.284 0-35.092 35.09-92.188 35.092-127.28 0-16.998-16.999-26.36-39.6-26.36-63.64s9.362-46.641 26.36-63.64c35.092-35.092 92.188-35.09 127.28 0 7.811 7.811 20.474 7.811 28.284 0s7.81-20.474 0-28.284c-50.688-50.687-133.162-50.686-183.848 0-24.555 24.554-38.077 57.2-38.077 91.924s13.522 67.37 38.077 91.924c25.343 25.343 58.633 38.015 91.924 38.015s66.581-12.672 91.924-38.015z" fill="#fff" data-original="#000000"></path>
  </symbol>
  <symbol xmlns="http://www.w3.org/2000/svg" viewBox="0 0 24 24" id="whatsapp">
    <path d="M17.507 14.307l-.009.075c-2.199-1.096-2.429-1.242-2.713-.816-.197.295-.771.964-.944 1.162-.175.195-.349.21-.646.075-.3-.15-1.263-.465-2.403-1.485-.888-.795-1.484-1.77-1.66-2.07-.293-.506.32-.578.878-1.634.1-.21.049-.375-.025-.524-.075-.15-.672-1.62-.922-2.206-.24-.584-.487-.51-.672-.51-.576-.05-.997-.042-1.368.344-1.614 1.774-1.207 3.604.174 5.55 2.714 3.552 4.16 4.206 6.804 5.114.714.227 1.365.195 1.88.121.574-.091 1.767-.721 2.016-1.426.255-.705.255-1.29.18-1.425-.074-.135-.27-.21-.57-.345z"></path>
    <path d="M20.52 3.449C12.831-3.984.106 1.407.101 11.893c0 2.096.549 4.14 1.595 5.945L0 24l6.335-1.652c7.905 4.27 17.661-1.4 17.665-10.449 0-3.176-1.24-6.165-3.495-8.411zm1.482 8.417c-.006 7.633-8.385 12.4-15.012 8.504l-.36-.214-3.75.975 1.005-3.645-.239-.375c-4.124-6.565.614-15.145 8.426-15.145a9.865 9.865 0 017.021 2.91 9.788 9.788 0 012.909 6.99z"></path>
  </symbol>
  <symbol xmlns="http://www.w3.org/2000/svg" viewBox="0 0 25 25" id="home">
    <g clip-path="url(#clip0)">
      <path d="M24.58 11.176L13.364.956a1.276 1.276 0 00-1.727 0L.42 11.175c-.395.36-.525.913-.332 1.41.193.498.662.82 1.195.82h1.792v10.24c0 .406.329.735.735.735h6.148c.406 0 .735-.33.735-.735v-6.218h3.614v6.218c0 .406.329.735.735.735h6.148c.406 0 .735-.33.735-.735v-10.24h1.792c.533 0 1.003-.322 1.195-.82a1.274 1.274 0 00-.332-1.41zm-2.847-9.09h-4.937l5.672 5.158V2.822a.735.735 0 00-.735-.736z"></path>
    </g>
    <defs>
      <clipPath id="clip0">
        <path d="M0 0h25v25H0z"></path>
      </clipPath>
    </defs>
  </symbol>
  <symbol xmlns="http://www.w3.org/2000/svg" viewBox="0 0 20 20" id="user">
    <path d="M9.857 9.634c1.324 0 2.47-.475 3.407-1.411.936-.937 1.41-2.082 1.41-3.406 0-1.323-.474-2.47-1.41-3.406C12.326.475 11.18 0 9.856 0 8.534 0 7.388.475 6.452 1.411c-.937.937-1.412 2.082-1.412 3.406 0 1.324.475 2.47 1.412 3.406.936.936 2.082 1.411 3.405 1.411zM7.28 2.24C8 1.52 8.842 1.172 9.857 1.172c1.016 0 1.859.35 2.578 1.068.718.719 1.068 1.562 1.068 2.577 0 1.016-.35 1.858-1.068 2.577-.719.719-1.562 1.068-2.578 1.068-1.015 0-1.858-.35-2.577-1.068-.718-.718-1.068-1.561-1.068-2.577 0-1.015.35-1.858 1.068-2.577zm11.006 13.139c-.027-.39-.081-.815-.162-1.264a9.943 9.943 0 00-.31-1.27 6.278 6.278 0 00-.523-1.185 4.466 4.466 0 00-.788-1.027 3.472 3.472 0 00-1.131-.71 3.91 3.91 0 00-1.444-.262c-.205 0-.402.084-.783.332-.235.153-.51.33-.816.526-.262.167-.617.323-1.055.465a4.19 4.19 0 01-1.29.208c-.43 0-.864-.07-1.292-.208-.438-.142-.793-.298-1.054-.465-.304-.194-.578-.371-.817-.526-.38-.248-.578-.332-.782-.332-.52 0-1.006.088-1.444.261a3.47 3.47 0 00-1.132.711c-.297.285-.562.63-.787 1.027-.218.382-.393.78-.523 1.185-.125.39-.23.818-.31 1.27-.08.449-.135.874-.162 1.264-.027.382-.04.78-.04 1.182 0 1.044.331 1.889.986 2.512.646.615 1.501.927 2.542.927h9.63c1.04 0 1.895-.312 2.541-.927.655-.623.987-1.468.987-2.513 0-.403-.014-.8-.04-1.181zm-1.754 2.845c-.427.406-.994.604-1.733.604h-9.63c-.74 0-1.307-.198-1.734-.604-.419-.399-.622-.943-.622-1.663 0-.375.012-.745.037-1.1.024-.349.073-.732.146-1.139.072-.401.164-.778.273-1.12a5.12 5.12 0 01.426-.963 3.31 3.31 0 01.578-.759c.201-.192.455-.35.753-.468.276-.11.586-.169.923-.178.041.022.114.064.233.14.24.158.518.337.825.533.346.22.792.42 1.325.592.544.176 1.1.265 1.651.265.551 0 1.107-.09 1.651-.265.534-.172.98-.371 1.326-.592.314-.201.584-.375.825-.532a3.17 3.17 0 01.232-.141c.337.009.648.069.924.178.298.118.551.276.752.468.215.206.41.46.579.759.177.312.32.636.425.963.11.342.202.719.274 1.12.073.408.122.79.146 1.139.025.354.037.724.038 1.1 0 .72-.204 1.264-.623 1.663z"></path>
  </symbol>
  <symbol xmlns="http://www.w3.org/2000/svg" viewBox="0 0 20 20" id="calendar">
    <path d="M17.656 1.563h-.937V0h-1.563v1.563H4.844V0H3.28v1.563h-.937A2.346 2.346 0 000 3.905v13.75A2.346 2.346 0 002.344 20h15.312A2.346 2.346 0 0020 17.656V3.906a2.346 2.346 0 00-2.344-2.344zm.782 16.093a.783.783 0 01-.782.782H2.344a.782.782 0 01-.781-.782V7.344h16.875v10.312zm0-11.875H1.563V3.906c0-.43.35-.781.78-.781h.938v1.563h1.563V3.125h10.312v1.563h1.563V3.125h.937c.431 0 .782.35.782.781v1.875z"></path>
    <path d="M4.531 8.984H2.97v1.563h1.56V8.984zm3.125 0H6.094v1.563h1.562V8.984zm3.125 0H9.22v1.563h1.562V8.984zm3.125 0h-1.562v1.563h1.562V8.984zm3.125 0H15.47v1.563h1.562V8.984zm-12.5 3.126H2.97v1.562h1.56v-1.563zm3.125 0H6.094v1.562h1.562v-1.563zm3.125 0H9.22v1.562h1.562v-1.563zm3.125 0h-1.562v1.562h1.562v-1.563zm-9.375 3.124H2.97v1.563h1.56v-1.563zm3.125 0H6.094v1.563h1.562v-1.563zm3.125 0H9.22v1.563h1.562v-1.563zm3.125 0h-1.562v1.563h1.562v-1.563zm3.125-3.124H15.47v1.562h1.562v-1.563z"></path>
  </symbol>
  <symbol xmlns="http://www.w3.org/2000/svg" viewBox="0 0 252.264 252.264" id="reload">
    <path d="M248.988 80.693a7.499 7.499 0 00-10.422 1.97l-15.314 22.453c-9.679-44.721-49.575-78.354-97.123-78.354-26.544 0-51.498 10.337-70.265 29.108a7.5 7.5 0 00.001 10.606 7.498 7.498 0 0010.606-.001c15.933-15.937 37.12-24.713 59.657-24.713 41.32 0 75.815 29.921 82.98 69.228l-26.606-18.147a7.498 7.498 0 00-10.422 1.97 7.5 7.5 0 001.971 10.422l39.714 27.087.007.005a7.484 7.484 0 004.219 1.305 7.494 7.494 0 006.203-3.274l26.764-39.242a7.5 7.5 0 00-1.97-10.423zm-61.792 103.658c-16.084 16.863-37.77 26.15-61.065 26.15-41.317-.001-75.813-29.921-82.978-69.227l26.607 18.147a7.465 7.465 0 004.219 1.305 7.5 7.5 0 004.233-13.696l-39.714-27.087-.006-.005a7.499 7.499 0 00-10.422 1.97L1.304 161.149a7.5 7.5 0 0012.392 8.451l15.313-22.453c9.68 44.72 49.577 78.352 97.121 78.352 27.435 0 52.977-10.938 71.919-30.797a7.5 7.5 0 00-.25-10.604 7.5 7.5 0 00-10.603.253z"></path>
  </symbol>
</svg>