<svg width="0" height="0" class="hidden">
   <symbol fill="none" xmlns="http://www.w3.org/2000/svg" viewBox="0 0 109 25" id="logo">
    <path d="M44.149 23.992c-4.106 0-7.358-1.229-9.757-3.686l2.664-3.755c1.984 2.086 4.429 3.129 7.335 3.129 1.268 0 2.249-.243 2.94-.73.716-.51 1.073-1.124 1.073-1.843 0-.626-.334-1.147-1.003-1.565-.646-.417-1.465-.718-2.457-.904a31.89 31.89 0 01-3.183-.8 27.454 27.454 0 01-3.217-1.182c-.969-.44-1.788-1.136-2.457-2.086-.645-.95-.968-2.11-.968-3.477 0-1.993.795-3.662 2.387-5.007C39.097.718 41.219.035 43.872.035c3.667 0 6.666 1.078 8.995 3.233l-2.733 3.616c-1.822-1.692-4.06-2.538-6.712-2.538-1.038 0-1.845.209-2.422.626-.576.417-.865.985-.865 1.704 0 .556.323 1.031.969 1.425.669.371 1.488.65 2.456.835a25 25 0 013.183.834 22.24 22.24 0 013.183 1.217c.992.44 1.811 1.148 2.457 2.121.669.95 1.003 2.098 1.003 3.443 0 2.225-.796 4.022-2.387 5.39-1.569 1.367-3.852 2.05-6.85 2.05zm20.295 0c-2.583 0-4.717-.812-6.4-2.434-1.684-1.623-2.526-3.756-2.526-6.398 0-2.48.807-4.567 2.422-6.259 1.637-1.692 3.713-2.538 6.227-2.538 2.491 0 4.51.858 6.055 2.573 1.545 1.692 2.318 3.917 2.318 6.676v.973H60.12c.138 1.113.634 2.04 1.487 2.782.853.742 1.96 1.113 3.321 1.113.738 0 1.534-.15 2.388-.452.876-.302 1.568-.707 2.075-1.217l1.938 2.85c-1.684 1.554-3.979 2.33-6.885 2.33zm3.84-10.397c-.069-.95-.45-1.808-1.142-2.573-.668-.765-1.66-1.147-2.975-1.147-1.245 0-2.214.382-2.906 1.147-.692.742-1.096 1.6-1.211 2.573h8.234zm23.102 9.979h-4.394V13.421c0-2.086-1.026-3.129-3.079-3.129-1.591 0-2.86.66-3.805 1.982v11.3h-4.394V6.78h4.394v2.19c1.453-1.738 3.402-2.607 5.846-2.607 1.8 0 3.149.475 4.048 1.425.923.95 1.384 2.26 1.384 3.93v11.856zm10.383.418c-1.453 0-2.848-.232-4.186-.696-1.315-.463-2.41-1.1-3.287-1.912l1.903-3.095c.646.603 1.522 1.136 2.63 1.6 1.106.463 2.156.695 3.148.695.922 0 1.614-.162 2.076-.487.484-.324.726-.765.726-1.321 0-.417-.254-.753-.761-1.008-.484-.279-1.096-.476-1.834-.591-.715-.116-1.51-.29-2.387-.522a16.99 16.99 0 01-2.387-.835c-.715-.324-1.326-.834-1.834-1.53-.484-.718-.726-1.599-.726-2.642 0-1.483.61-2.735 1.833-3.755 1.223-1.02 2.895-1.53 5.017-1.53 2.583 0 4.832.765 6.746 2.295l-1.764 3.025c-.531-.556-1.246-1.02-2.145-1.391a7.119 7.119 0 00-2.802-.556c-.785 0-1.419.162-1.903.486-.485.302-.727.696-.727 1.183 0 .37.242.683.727.938.484.232 1.095.406 1.833.522.738.116 1.534.301 2.388.556.853.232 1.649.522 2.387.87.738.324 1.349.857 1.833 1.599.485.742.727 1.646.727 2.712 0 1.576-.646 2.875-1.937 3.894-1.269.997-3.034 1.496-5.294 1.496z" fill="#fff"></path>
    <path d="M4.913 23.574H0V.382h4.913v23.192zm15.514.418c-3.483 0-6.366-1.125-8.65-3.373-2.26-2.272-3.39-5.146-3.39-8.623 0-3.477 1.13-6.34 3.39-8.588C14.061 1.136 16.944 0 20.428 0c3.506 0 6.389 1.124 8.65 3.373C31.36 5.62 32.5 8.496 32.5 11.996c0 3.268-1.003 6.004-3.01 8.206l1.696 1.982L27.762 25l-1.869-2.156c-1.707.765-3.529 1.148-5.466 1.148zm0-4.381c.807 0 1.614-.128 2.422-.383l-2.526-2.99 3.39-2.817 2.56 3.026c.785-1.299 1.177-2.782 1.177-4.451 0-2.202-.646-4.022-1.937-5.46-1.292-1.436-2.987-2.155-5.086-2.155s-3.794.719-5.086 2.156c-1.268 1.437-1.903 3.257-1.903 5.459 0 2.202.634 4.022 1.903 5.459 1.292 1.437 2.987 2.156 5.086 2.156z" fill="#FF4F55"></path>
  </symbol>
  <symbol fill="none" xmlns="http://www.w3.org/2000/svg" viewBox="0 0 58 18" id="bottomArrow">
    <path d="M1 1l28 15L57 1" stroke-width="2"></path>
  </symbol>
  <symbol fill="none" xmlns="http://www.w3.org/2000/svg" viewBox="0 0 413 95" id="bgText">
    <path d="M167.278 90.903c-15.557 0-27.879-4.654-36.968-13.965l10.094-14.228c7.516 7.905 16.78 11.857 27.791 11.857 4.807 0 8.521-.922 11.143-2.767 2.709-1.932 4.064-4.26 4.064-6.982 0-2.372-1.268-4.348-3.802-5.929-2.447-1.58-5.549-2.722-9.307-3.425-3.671-.703-7.691-1.713-12.061-3.03-4.369-1.318-8.433-2.81-12.191-4.48-3.671-1.668-6.773-4.303-9.308-7.904-2.447-3.601-3.67-7.993-3.67-13.175 0-7.553 3.015-13.877 9.045-18.971C148.138 2.722 156.179.13 166.229.13c13.895 0 25.257 4.084 34.083 12.252l-10.356 13.702c-6.904-6.412-15.381-9.618-25.431-9.618-3.933 0-6.992.79-9.177 2.372-2.185 1.58-3.277 3.733-3.277 6.455 0 2.108 1.224 3.909 3.671 5.402 2.534 1.405 5.636 2.459 9.307 3.162 3.758.702 7.778 1.756 12.06 3.162 4.37 1.317 8.39 2.854 12.061 4.61 3.758 1.67 6.86 4.348 9.307 8.037 2.534 3.601 3.802 7.949 3.802 13.043 0 8.432-3.015 15.238-9.046 20.42-5.942 5.183-14.594 7.773-25.955 7.773zm76.898 0c-9.788 0-17.872-3.074-24.251-9.222-6.38-6.148-9.57-14.228-9.57-24.24 0-9.399 3.059-17.303 9.176-23.715 6.205-6.412 14.071-9.617 23.597-9.617 9.438 0 17.085 3.25 22.941 9.749 5.855 6.411 8.783 14.843 8.783 25.295v3.689H227.79c.524 4.216 2.403 7.729 5.637 10.54 3.234 2.81 7.428 4.215 12.585 4.215 2.796 0 5.811-.57 9.045-1.712 3.321-1.142 5.943-2.68 7.865-4.612l7.341 10.803c-6.379 5.885-15.075 8.828-26.087 8.828zm14.551-39.391c-.262-3.602-1.704-6.851-4.326-9.75-2.534-2.898-6.292-4.347-11.273-4.347-4.72 0-8.39 1.449-11.012 4.347-2.622 2.811-4.151 6.06-4.588 9.75h31.199zm87.534 37.811h-16.648v-38.47c0-7.905-3.889-11.857-11.667-11.857-6.031 0-10.837 2.503-14.42 7.51v42.817h-16.649V25.69h16.649v8.3c5.505-6.588 12.89-9.882 22.154-9.882 6.817 0 11.929 1.801 15.337 5.402 3.496 3.601 5.244 8.564 5.244 14.887v44.926zm39.34 1.58c-5.505 0-10.793-.878-15.861-2.635-4.982-1.756-9.133-4.171-12.454-7.246l7.21-11.725c2.447 2.284 5.768 4.304 9.963 6.06 4.195 1.757 8.171 2.635 11.929 2.635 3.496 0 6.118-.614 7.865-1.844 1.836-1.23 2.753-2.898 2.753-5.006 0-1.581-.961-2.855-2.884-3.821-1.835-1.054-4.151-1.8-6.947-2.24-2.71-.439-5.725-1.098-9.046-1.976-3.233-.878-6.248-1.932-9.045-3.162-2.709-1.23-5.025-3.162-6.948-5.796-1.835-2.723-2.753-6.06-2.753-10.013 0-5.621 2.316-10.364 6.948-14.229 4.632-3.864 10.968-5.797 19.008-5.797 9.788 0 18.309 2.899 25.563 8.696l-6.686 11.462c-2.01-2.108-4.719-3.865-8.127-5.27-3.321-1.406-6.861-2.108-10.619-2.108-2.971 0-5.374.615-7.21 1.844-1.835 1.142-2.752 2.635-2.752 4.48 0 1.405.917 2.59 2.752 3.557 1.836.878 4.152 1.537 6.948 1.976 2.797.44 5.812 1.142 9.045 2.108 3.234.878 6.249 1.976 9.046 3.294 2.796 1.23 5.112 3.25 6.947 6.06 1.836 2.81 2.753 6.236 2.753 10.276 0 5.972-2.447 10.89-7.341 14.755-4.806 3.777-11.492 5.665-20.057 5.665zm-366.986-1.58H0V1.45h18.615v87.874zm58.783 1.581c-13.197 0-24.121-4.26-32.773-12.779-8.565-8.607-12.847-19.498-12.847-32.673 0-13.174 4.282-24.021 12.847-32.541C53.277 4.304 64.201 0 77.398 0c13.284 0 24.208 4.26 32.772 12.78 8.652 8.519 12.978 19.41 12.978 32.672 0 12.384-3.801 22.748-11.405 31.092l6.424 7.51-12.978 10.671-7.08-8.168c-6.466 2.898-13.37 4.347-20.711 4.347zm0-16.6c3.058 0 6.117-.483 9.176-1.449l-9.57-11.33 12.847-10.671 9.7 11.462c2.972-4.919 4.458-10.54 4.458-16.864 0-8.344-2.447-15.238-7.341-20.684-4.894-5.445-11.318-8.168-19.27-8.168-7.953 0-14.377 2.723-19.27 8.168-4.807 5.446-7.21 12.34-7.21 20.684 0 8.344 2.403 15.239 7.21 20.684 4.893 5.446 11.317 8.168 19.27 8.168z" fill="#F1F1F1"></path>
  </symbol>
  <symbol fill="none" xmlns="http://www.w3.org/2000/svg" viewBox="0 0 1919 701" id="decorativeLine">
    <path d="M1 700c119.47-258.568 225.986-474.454 349.054-491.774 123.069-17.321 173.448 144.13 258.373 144.13 84.924 0 125.947-74.23 153.296-144.13C789.071 138.326 843.769 1 946.686 1 1049.6 1 1099.98 146.986 1125.89 208.226c25.91 61.239 95 188.668 191.44 188.668s125.23-71.501 216.63-62.477c91.4 9.024 123.79 118.768 218.79 118.768 95 0 77.73-84.127 166.25-84.127" stroke="url(#paint0_linear)" stroke-width="2" stroke-linecap="round" stroke-linejoin="round"></path>
    <defs>
      <linearGradient id="paint0_linear" x1="1" y1="700" x2="1919" y2="700" gradientUnits="userSpaceOnUse">
        <stop stop-color="#FF59F8"></stop>
        <stop offset="1" stop-color="#FE0"></stop>
      </linearGradient>
    </defs>
  </symbol>
</svg>