<svg width="63" height="73" viewBox="0 0 63 73" fill="none" xmlns="http://www.w3.org/2000/svg">
<path d="M62.75 0.449995V73H47.65V29.75C47.65 27.95 47.7 26.0667 47.8 24.1C47.9 22.1 48.1 20 48.4 17.8C47.6667 19.7667 46.8833 21.6 46.05 23.3C45.2167 25 44.4167 26.4833 43.65 27.75L18.5 68.4C18.1667 68.9667 17.7667 69.5167 17.3 70.05C16.8333 70.5833 16.3167 71.0833 15.75 71.55C15.2167 71.9833 14.6167 72.3333 13.95 72.6C13.3167 72.8667 12.6333 73 11.9 73H0.600001V0.449995H15.7V43.7C15.7 45.5 15.65 47.4 15.55 49.4C15.45 51.3667 15.25 53.45 14.95 55.65C15.6833 53.6833 16.4667 51.85 17.3 50.15C18.1333 48.45 18.9333 46.9667 19.7 45.7L44.85 5C45.1833 4.46666 45.5833 3.93333 46.05 3.4C46.5167 2.83333 47.0167 2.33333 47.55 1.9C48.1167 1.46666 48.7167 1.11666 49.35 0.849996C50.0167 0.583329 50.7167 0.449995 51.45 0.449995H62.75Z" fill="#4592FF"/>
</svg>
