<svg width="20" height="20" viewBox="0 0 20 20" fill="none" xmlns="http://www.w3.org/2000/svg">
<path fill-rule="evenodd" clip-rule="evenodd" d="M18.4355 17.3951L14.1461 12.9395C15.249 11.6301 15.8532 9.98262 15.8532 8.26749C15.8532 4.26026 12.5889 1 8.57665 1C4.56439 1 1.30005 4.26026 1.30005 8.26749C1.30005 12.2747 4.56439 15.535 8.57665 15.535C10.0829 15.535 11.5183 15.0812 12.7455 14.2199L17.0675 18.7093C17.2481 18.8967 17.4911 19 17.7515 19C17.9979 19 18.2317 18.9062 18.4092 18.7355C18.7864 18.3731 18.7984 17.7721 18.4355 17.3951ZM8.57665 2.89587C11.5423 2.89587 13.955 5.30552 13.955 8.26749C13.955 11.2295 11.5423 13.6391 8.57665 13.6391C5.61096 13.6391 3.19829 11.2295 3.19829 8.26749C3.19829 5.30552 5.61096 2.89587 8.57665 2.89587Z" fill="#BCBFC2"/>
</svg>
