<svg width="23" height="23" viewBox="0 0 23 23" fill="none" xmlns="http://www.w3.org/2000/svg">
<g clip-path="url(#clip0)">
<path d="M22.374 16.8797L19.1643 13.67C18.018 12.5236 16.0692 12.9822 15.6107 14.4724C15.2668 15.5041 14.1204 16.0773 13.0887 15.848C10.7961 15.2748 7.701 12.2944 7.12783 9.88708C6.78393 8.85534 7.47173 7.70901 8.50343 7.36516C9.99365 6.90663 10.4522 4.95787 9.30586 3.81154L6.09614 0.601822C5.17907 -0.200607 3.80348 -0.200607 3.00105 0.601822L0.823024 2.77985C-1.355 5.0725 1.05229 11.148 6.44003 16.5358C11.8278 21.9235 17.9033 24.4455 20.196 22.1528L22.374 19.9748C23.1765 19.0577 23.1765 17.6821 22.374 16.8797Z" fill="white"/>
</g>
<defs>
<clipPath id="clip0">
<rect width="23" height="23" fill="white"/>
</clipPath>
</defs>
</svg>
