<svg width="80" height="50" version="1.1" xmlns="http://www.w3.org/2000/svg"><path fill="rgb(255,143,0)" stroke="rgb(255,143,0)" stroke-width="1" opacity="0.45098039215686275" d="M 68.5 1 L 69 5.5 L 68 5.5 L 68.5 1 Z "></path><path fill="rgb(255,143,0)" stroke="rgb(255,143,0)" stroke-width="1" opacity="0.45098039215686275" d="M 73.5 3 L 74 8.5 L 73 8.5 L 73.5 3 Z "></path><path fill="rgb(255,143,0)" stroke="rgb(255,143,0)" stroke-width="1" opacity="0.45098039215686275" d="M 19.5 8 L 18.5 10 L 19.5 8 Z "></path><path fill="rgb(255,143,0)" stroke="rgb(255,143,0)" stroke-width="1" opacity="0.45098039215686275" d="M 60.5 8 L 61.5 10 L 60.5 8 Z "></path><path fill="rgb(255,143,0)" stroke="rgb(255,143,0)" stroke-width="1" opacity="0.45098039215686275" d="M 4.5 9 L 3.5 11 L 4.5 9 Z "></path><path fill="rgb(255,143,0)" stroke="rgb(255,143,0)" stroke-width="1" opacity="0.45098039215686275" d="M 1.5 11 L 0.5 13 L 1.5 11 Z "></path><path fill="rgb(255,143,0)" stroke="rgb(255,143,0)" stroke-width="1" opacity="0.45098039215686275" d="M 36.5 13 L 37 30.5 L 36 30.5 L 36.5 13 Z "></path><path fill="rgb(255,143,0)" stroke="rgb(255,143,0)" stroke-width="1" opacity="0.45098039215686275" d="M 44.5 15 L 44 16.5 L 43.5 37 L 43 16.5 L 44.5 15 Z "></path><path fill="rgb(255,143,0)" stroke="rgb(255,143,0)" stroke-width="1" opacity="0.45098039215686275" d="M 6.5 17 L 7 32.5 L 6 32.5 L 6.5 17 Z "></path><path fill="rgb(255,143,0)" stroke="rgb(255,143,0)" stroke-width="1" opacity="0.45098039215686275" d="M 73.5 17 L 74 32.5 L 73 32.5 L 73.5 17 Z "></path><path fill="rgb(255,143,0)" stroke="rgb(255,143,0)" stroke-width="1" opacity="0.45098039215686275" d="M 22.5 22 L 23 24.5 L 22 24.5 L 22.5 22 Z "></path><path fill="rgb(255,143,0)" stroke="rgb(255,143,0)" stroke-width="1" opacity="0.45098039215686275" d="M 23.5 27 L 25 27.5 L 23 28 L 22.5 31 L 22 28.5 L 23.5 27 Z "></path><path fill="rgb(255,143,0)" stroke="rgb(255,143,0)" stroke-width="1" opacity="0.45098039215686275" d="M 36.5 33 L 35.5 35 L 36.5 33 Z "></path><path fill="rgb(255,143,0)" stroke="rgb(255,143,0)" stroke-width="1" opacity="0.45098039215686275" d="M 79.5 37 L 78.5 39 L 79.5 37 Z "></path><path fill="rgb(255,143,0)" stroke="rgb(255,143,0)" stroke-width="1" opacity="0.45098039215686275" d="M 10.5 43 L 11.5 45 L 10.5 43 Z "></path><path fill="rgb(0,0,0)" stroke="rgb(0,0,0)" stroke-width="1" opacity="0" d="M 0 0 L 8 0.5 Q 4.8 1.8 6 7.5 L 3.5 10 L 0 11 L 0 0 Z "></path><path fill="rgb(0,0,0)" stroke="rgb(0,0,0)" stroke-width="1" opacity="0" d="M 11 0 L 19 0.5 L 11.5 5 L 11 0 Z "></path><path fill="rgb(0,0,0)" stroke="rgb(0,0,0)" stroke-width="1" opacity="0" d="M 24.5 0 L 56 0.5 L 36 12.5 L 36 33.5 L 34.5 34 L 21.5 42 L 7 32.5 L 7 17.5 L 9.5 15 L 21.5 8 L 27.5 11 L 33 8 Q 34.5 4.2 31.5 5 L 24.5 1 L 24.5 0 Z M 18 21 L 16 23 Q 14 28 20 26 L 21 23 L 18 21 Z M 22 21 Q 20 28 26 26 Q 28 19 22 21 Z M 16 27 L 16 31 L 20 32 L 21 29 Q 20 26 16 27 Z M 22 27 Q 21 31 24 32 L 26 31 Q 28 25 22 27 Z "></path><path fill="rgb(0,0,0)" stroke="rgb(0,0,0)" stroke-width="1" opacity="0" d="M 61.5 0 L 68 0 L 68 4 L 61.5 1 L 61.5 0 Z "></path><path fill="rgb(0,0,0)" stroke="rgb(0,0,0)" stroke-width="1" opacity="0" d="M 71.5 0 L 80 0 L 80 11 L 74 7.5 Q 75.3 1.4 72.5 2 L 71.5 0 Z "></path><path fill="rgb(0,0,0)" stroke="rgb(0,0,0)" stroke-width="1" opacity="0" d="M 58.5 8 L 63.5 12 L 73 16 L 73 33.5 L 71.5 34 L 58.5 42 L 52.5 39 L 46 43.5 L 56 49.5 L 24.5 50 L 24.5 49 L 44 37.5 L 44 16.5 L 45.5 16 L 58.5 8 Z M 55 21 Q 50 23 53 25 Q 52 28 57 26 L 58 23 L 55 21 Z M 59 21 Q 57 28 63 26 Q 65 19 59 21 Z M 53 27 L 53 31 L 57 32 L 58 29 Q 57 26 53 27 Z M 59 27 Q 58 31 61 32 L 63 31 Q 65 25 59 27 Z "></path><path fill="rgb(0,0,0)" stroke="rgb(0,0,0)" stroke-width="1" opacity="0" d="M 0 39 L 19 49.5 L 0 50 L 0 39 Z "></path><path fill="rgb(0,0,0)" stroke="rgb(0,0,0)" stroke-width="1" opacity="0" d="M 78.5 39 L 80 39.5 L 80 50 L 61 49.5 L 78.5 39 Z "></path><path fill="rgb(255,133,0)" stroke="rgb(255,133,0)" stroke-width="1" opacity="0.9882352941176471" d="M 57.5 0 Q 60.1 -0.8 59 2.5 L 56.5 8 L 56 6.5 L 57 3 L 55 2.5 L 57.5 0 Z "></path><path fill="rgb(255,133,0)" stroke="rgb(255,133,0)" stroke-width="1" opacity="0.9882352941176471" d="M 50.5 5 L 51 7.5 L 51 9.5 L 47.5 14 Q 44.2 15.1 45 12.5 L 43 9.5 L 50.5 5 Z "></path><path fill="rgb(255,133,0)" stroke="rgb(255,133,0)" stroke-width="1" opacity="0.9882352941176471" d="M 6 7 L 17 8 L 15.5 11 Q 13.2 14.8 6.5 14 L 2 11.5 L 6 8.5 L 6 7 Z "></path><path fill="rgb(255,133,0)" stroke="rgb(255,133,0)" stroke-width="1" opacity="0.9882352941176471" d="M 0.5 13 L 6 22.5 L 4 21.5 L 0 14.5 L 0.5 13 Z "></path><path fill="rgb(255,133,0)" stroke="rgb(255,133,0)" stroke-width="1" opacity="0.9882352941176471" d="M 70.5 13 L 80 17.5 L 80 36.5 L 77.5 39 L 75.5 40 L 75 38.5 L 76 37.5 L 76 27.5 L 74 24.5 Q 74.9 17.7 73 15 L 70.5 13 Z "></path><path fill="rgb(255,133,0)" stroke="rgb(255,133,0)" stroke-width="1" opacity="0.9882352941176471" d="M 17 22 L 20 23.5 L 17 24 L 17 22 Z "></path><path fill="rgb(255,133,0)" stroke="rgb(255,133,0)" stroke-width="1" opacity="0.9882352941176471" d="M 23 22 Q 25.7 20.9 25 23.5 L 23 24.5 L 23 22 Z "></path><path fill="rgb(255,133,0)" stroke="rgb(255,133,0)" stroke-width="1" opacity="0.9882352941176471" d="M 5.5 28 L 7 35 L 12 37.5 L 14 45 L 5 39.5 L 4 32.5 L 5.5 28 Z "></path><path fill="rgb(255,133,0)" stroke="rgb(255,133,0)" stroke-width="1" opacity="0.9882352941176471" d="M 36.5 35 L 37 38.5 L 36 38.5 L 36.5 35 Z "></path><path fill="rgb(255,171,0)" stroke="rgb(255,171,0)" stroke-width="1" opacity="0.9803921568627451" d="M 21.5 0 L 33 6.5 L 26.5 10 Q 24.8 7.2 19.5 8 L 17 9.5 Q 17.6 6.8 11.5 8 L 6 7 Q 5 2.3 8.5 1 Q 13.1 -0.3 11 5.5 L 12.5 5 L 21.5 0 Z "></path><path fill="rgb(255,171,0)" stroke="rgb(255,171,0)" stroke-width="1" opacity="0.9803921568627451" d="M 69.5 0 L 73 2 L 73 8.5 L 74.5 9 L 80 12 L 79.5 17 L 70.5 13 Q 69 15.5 67.5 12 L 60.5 8 L 57 8 L 59 1 L 68.5 6 L 69.5 0 Z "></path><path fill="rgb(255,171,0)" stroke="rgb(255,171,0)" stroke-width="1" opacity="0.9803921568627451" d="M 42.5 9 L 46 14.5 L 43 16.5 L 43 37.5 L 41.5 38 L 36 41 L 37 38.5 L 37 12.5 L 38.5 11 L 42.5 9 Z "></path><path fill="rgb(255,171,0)" stroke="rgb(255,171,0)" stroke-width="1" opacity="0.9803921568627451" d="M 0.5 15 L 6 23.5 L 6 27.5 L 4 35.5 L 6 40.5 L 3.5 39 L 0 38 L 0.5 15 Z "></path><path fill="rgb(255,171,0)" stroke="rgb(255,171,0)" stroke-width="1" opacity="0.9803921568627451" d="M 52.5 40 L 64 45 L 62.5 48 L 57.5 50 L 47 43.5 L 52.5 40 Z "></path><path fill="rgb(255,123,0)" stroke="rgb(255,123,0)" stroke-width="1" opacity="0.10588235294117647" d="M 8.5 0 L 7.5 2 L 8.5 0 Z "></path><path fill="rgb(255,123,0)" stroke="rgb(255,123,0)" stroke-width="1" opacity="0.10588235294117647" d="M 52.5 2 L 51.5 4 L 52.5 2 Z "></path><path fill="rgb(255,123,0)" stroke="rgb(255,123,0)" stroke-width="1" opacity="0.10588235294117647" d="M 53.5 10 L 52.5 12 L 53.5 10 Z "></path><path fill="rgb(255,123,0)" stroke="rgb(255,123,0)" stroke-width="1" opacity="0.10588235294117647" d="M 62.5 10 L 65 11.5 L 63.5 12 L 62.5 10 Z "></path><path fill="rgb(255,123,0)" stroke="rgb(255,123,0)" stroke-width="1" opacity="0.10588235294117647" d="M 37.5 11 L 36.5 13 L 37.5 11 Z "></path><path fill="rgb(255,123,0)" stroke="rgb(255,123,0)" stroke-width="1" opacity="0.10588235294117647" d="M 8.5 15 L 7.5 17 L 8.5 15 Z "></path><path fill="rgb(255,123,0)" stroke="rgb(255,123,0)" stroke-width="1" opacity="0.10588235294117647" d="M 17.5 21 L 21 22.5 L 19.5 26 Q 14.3 27.8 16 22.5 L 17.5 21 Z M 17 22 Q 16 27 20 25 Q 22 21 17 22 Z "></path><path fill="rgb(255,123,0)" stroke="rgb(255,123,0)" stroke-width="1" opacity="0.10588235294117647" d="M 22.5 21 L 26 21.5 L 22.5 22 L 22.5 21 Z "></path><path fill="rgb(255,123,0)" stroke="rgb(255,123,0)" stroke-width="1" opacity="0.10588235294117647" d="M 54.5 21 L 58 22.5 L 56.5 26 Q 52.1 27.5 53 24.5 Q 50.2 22.8 54.5 21 Z M 55 22 L 53 24 L 57 25 Q 59 21 55 22 Z "></path><path fill="rgb(255,123,0)" stroke="rgb(255,123,0)" stroke-width="1" opacity="0.10588235294117647" d="M 59.5 21 L 63 21.5 L 59.5 22 L 59.5 21 Z "></path><path fill="rgb(255,123,0)" stroke="rgb(255,123,0)" stroke-width="1" opacity="0.10588235294117647" d="M 22.5 25 L 26 25.5 L 22.5 26 L 22.5 25 Z "></path><path fill="rgb(255,123,0)" stroke="rgb(255,123,0)" stroke-width="1" opacity="0.10588235294117647" d="M 59.5 25 L 63 25.5 L 59.5 26 L 59.5 25 Z "></path><path fill="rgb(255,123,0)" stroke="rgb(255,123,0)" stroke-width="1" opacity="0.10588235294117647" d="M 16 27 L 18 27.5 L 17 31 Q 21.1 32.7 20 28.5 L 19.5 27 L 21 30.5 L 17.5 32 Q 15 30.8 16 27 Z "></path><path fill="rgb(255,123,0)" stroke="rgb(255,123,0)" stroke-width="1" opacity="0.10588235294117647" d="M 53 27 L 55 27.5 L 53 28.5 L 53 27 Z "></path><path fill="rgb(255,123,0)" stroke="rgb(255,123,0)" stroke-width="1" opacity="0.10588235294117647" d="M 56.5 27 L 58 30.5 L 54.5 32 L 53.5 30 L 57 31 L 56.5 27 Z "></path><path fill="rgb(255,123,0)" stroke="rgb(255,123,0)" stroke-width="1" opacity="0.10588235294117647" d="M 7.5 33 L 8.5 35 L 7.5 33 Z "></path><path fill="rgb(255,123,0)" stroke="rgb(255,123,0)" stroke-width="1" opacity="0.10588235294117647" d="M 32.5 35 L 31.5 37 L 32.5 35 Z "></path><path fill="rgb(255,123,0)" stroke="rgb(255,123,0)" stroke-width="1" opacity="0.10588235294117647" d="M 12.5 36 L 13.5 38 L 12.5 36 Z "></path><path fill="rgb(255,123,0)" stroke="rgb(255,123,0)" stroke-width="1" opacity="0.10588235294117647" d="M 67.5 36 L 66.5 38 L 67.5 36 Z "></path><path fill="rgb(255,123,0)" stroke="rgb(255,123,0)" stroke-width="1" opacity="0.10588235294117647" d="M 43.5 37 L 42.5 39 L 43.5 37 Z "></path><path fill="rgb(255,123,0)" stroke="rgb(255,123,0)" stroke-width="1" opacity="0.10588235294117647" d="M 27.5 38 L 26.5 40 L 27.5 38 Z "></path><path fill="rgb(255,123,0)" stroke="rgb(255,123,0)" stroke-width="1" opacity="0.10588235294117647" d="M 17.5 39 L 18.5 41 L 17.5 39 Z "></path><path fill="rgb(255,123,0)" stroke="rgb(255,123,0)" stroke-width="1" opacity="0.10588235294117647" d="M 40.5 39 L 39.5 41 L 40.5 39 Z "></path><path fill="rgb(255,123,0)" stroke="rgb(255,123,0)" stroke-width="1" opacity="0.10588235294117647" d="M 62.5 39 L 61.5 41 L 62.5 39 Z "></path><path fill="rgb(255,123,0)" stroke="rgb(255,123,0)" stroke-width="1" opacity="0.10588235294117647" d="M 4.5 40 L 5.5 42 L 4.5 40 Z "></path><path fill="rgb(255,123,0)" stroke="rgb(255,123,0)" stroke-width="1" opacity="0.10588235294117647" d="M 75.5 40 L 74.5 42 L 75.5 40 Z "></path><path fill="rgb(255,123,0)" stroke="rgb(255,123,0)" stroke-width="1" opacity="0.10588235294117647" d="M 33.5 43 L 32.5 45 L 33.5 43 Z "></path><path fill="rgb(255,123,0)" stroke="rgb(255,123,0)" stroke-width="1" opacity="0.10588235294117647" d="M 46.5 43 L 47.5 45 L 46.5 43 Z "></path><path fill="rgb(255,123,0)" stroke="rgb(255,123,0)" stroke-width="1" opacity="0.10588235294117647" d="M 68.5 44 L 67.5 46 L 68.5 44 Z "></path><path fill="rgb(255,123,0)" stroke="rgb(255,123,0)" stroke-width="1" opacity="0.10588235294117647" d="M 28.5 46 L 27.5 48 L 28.5 46 Z "></path><path fill="rgb(255,123,0)" stroke="rgb(255,123,0)" stroke-width="1" opacity="0.10588235294117647" d="M 51.5 46 L 52.5 48 L 51.5 46 Z "></path><path fill="rgb(255,123,0)" stroke="rgb(255,123,0)" stroke-width="1" opacity="0.10588235294117647" d="M 16.5 47 L 17.5 49 L 16.5 47 Z "></path><path fill="rgb(255,123,0)" stroke="rgb(255,123,0)" stroke-width="1" opacity="0.10588235294117647" d="M 63.5 47 L 62.5 49 L 63.5 47 Z "></path><path fill="rgb(255,100,0)" stroke="rgb(255,100,0)" stroke-width="1" opacity="0.9725490196078431" d="M 54.5 2 L 57 3 L 54.5 10 L 50.5 12 L 51 10.5 L 50 8.5 L 51 4 L 54.5 2 Z "></path><path fill="rgb(255,100,0)" stroke="rgb(255,100,0)" stroke-width="1" opacity="0.9725490196078431" d="M 1 12 L 9 14.5 Q 5.4 15.9 5.5 21 Q 1.3 18.1 1 12 Z "></path><path fill="rgb(255,100,0)" stroke="rgb(255,100,0)" stroke-width="1" opacity="0.9725490196078431" d="M 55.5 22 Q 58.5 21.2 57 25 Q 53.2 26.5 54 23.5 L 55.5 22 Z "></path><path fill="rgb(255,100,0)" stroke="rgb(255,100,0)" stroke-width="1" opacity="0.9725490196078431" d="M 60.5 22 Q 64.7 20.9 63 25 L 59 23.5 L 60.5 22 Z "></path><path fill="rgb(255,100,0)" stroke="rgb(255,100,0)" stroke-width="1" opacity="0.9725490196078431" d="M 25.5 23 L 24.5 25 L 25.5 23 Z "></path><path fill="rgb(255,100,0)" stroke="rgb(255,100,0)" stroke-width="1" opacity="0.9725490196078431" d="M 17.5 24 L 20 24.5 L 17.5 25 L 17.5 24 Z "></path><path fill="rgb(255,100,0)" stroke="rgb(255,100,0)" stroke-width="1" opacity="0.9725490196078431" d="M 74.5 25 Q 77.9 28.6 76 37.5 L 75 41 L 68.5 44 L 68 40.5 Q 69.3 34.7 74 32.5 L 74.5 25 Z "></path><path fill="rgb(255,100,0)" stroke="rgb(255,100,0)" stroke-width="1" opacity="0.9725490196078431" d="M 17 28 Q 20.7 26.5 20 29.5 L 17 31 L 17 28 Z "></path><path fill="rgb(255,100,0)" stroke="rgb(255,100,0)" stroke-width="1" opacity="0.9725490196078431" d="M 23 28 Q 26.8 26.5 26 29.5 L 23 31 L 23 28 Z "></path><path fill="rgb(255,100,0)" stroke="rgb(255,100,0)" stroke-width="1" opacity="0.9725490196078431" d="M 12.5 37 L 20 42.5 L 23 50 L 14 46 L 12.5 37 Z "></path><path fill="rgb(255,100,0)" stroke="rgb(255,100,0)" stroke-width="1" opacity="0.9725490196078431" d="M 61.5 43 L 67 44.5 L 63.5 45 L 61.5 43 Z "></path><path fill="rgb(255,55,0)" stroke="rgb(255,55,0)" stroke-width="1" opacity="0.9882352941176471" d="M 60 29 Q 63 28 62 31 Q 59 32 60 29 Z "></path><path fill="rgb(255,55,0)" stroke="rgb(255,55,0)" stroke-width="1" opacity="0.9882352941176471" d="M 35.5 35 L 36 36.5 L 35 41.5 L 32.5 44 L 25.5 47 Q 22.5 46.5 23 42.5 L 35.5 35 Z "></path><path fill="rgb(255,55,0)" stroke="rgb(255,55,0)" stroke-width="1" opacity="0.9882352941176471" d="M 64.5 39 Q 67.8 37.9 67 40.5 L 66 44 L 60 41.5 L 64.5 39 Z "></path><path fill="rgb(255,71,0)" stroke="rgb(255,71,0)" stroke-width="1" opacity="0.9333333333333333" d="M 54 28 Q 58.1 26.3 57 30.5 L 55.5 30 Q 52.9 30.7 54 28 Z "></path><path fill="rgb(255,71,0)" stroke="rgb(255,71,0)" stroke-width="1" opacity="0.9333333333333333" d="M 59 28 Q 64.2 25.9 63 30.5 L 62 30.5 Q 62.8 28.3 60.5 29 L 59 29.5 L 59 28 Z "></path><path fill="rgb(255,71,0)" stroke="rgb(255,71,0)" stroke-width="1" opacity="0.9333333333333333" d="M 69.5 36 L 69 37.5 L 67.5 45 L 66 41.5 L 67 39 L 65 38.5 L 69.5 36 Z "></path><path fill="rgb(255,71,0)" stroke="rgb(255,71,0)" stroke-width="1" opacity="0.9333333333333333" d="M 19.5 41 L 23 42 Q 22.2 46.2 26 47.5 L 23.5 49 L 19.5 41 Z "></path></svg>