<svg width="20" height="20" viewBox="0 0 20 20" fill="none" xmlns="http://www.w3.org/2000/svg">
<path fill-rule="evenodd" clip-rule="evenodd" d="M10 2.80005C7.102 2.80005 3.3406 3.5294 3.3406 3.5294L3.33113 3.54026C2.01123 3.7523 1 4.89153 1 6.27701V13.7217C1.00266 15.09 1.99367 16.2524 3.33789 16.4653L3.3406 16.4693C3.3406 16.4693 7.102 17.2 10 17.2C12.898 17.2 16.6594 16.4693 16.6594 16.4693C18.0065 16.2555 18.9986 15.0914 19 13.7231V6.27701C18.998 4.90961 18.0068 3.74646 16.6621 3.53347C16.6594 3.5294 12.898 2.80005 10 2.80005ZM8.2 6.85005L13.6 10L8.2 13.15V6.85005Z" fill="white"/>
</svg>
