<?xml version="1.0"?>
<svg xmlns="http://www.w3.org/2000/svg" xmlns:xlink="http://www.w3.org/1999/xlink" version="1.1" id="Capa_1" x="0px" y="0px" viewBox="0 0 512 512" style="enable-background:new 0 0 512 512;" xml:space="preserve" width="512px" height="512px" class=""><g><g>
	<g>
		<path d="M437.02,74.98C388.667,26.629,324.38,0,256,0S123.333,26.629,74.98,74.98C26.629,123.333,0,187.62,0,256    s26.629,132.667,74.98,181.02C123.333,485.371,187.62,512,256,512s132.667-26.629,181.02-74.98    C485.371,388.667,512,324.38,512,256S485.371,123.333,437.02,74.98z M256,472c-119.103,0-216-96.897-216-216S136.897,40,256,40    s216,96.897,216,216S375.103,472,256,472z" data-original="#000000" class="active-path" data-old_color="#000000" fill="#FB2B2B"/>
	</g>
</g><g>
	<g>
		<polygon points="276,236 276,76 236,76 236,276 388,276 388,236   " data-original="#000000" class="active-path" data-old_color="#000000" fill="#FB2B2B"/>
	</g>
</g></g> </svg>
